<svg xmlns="http://www.w3.org/2000/svg" xmlns:xlink="http://www.w3.org/1999/xlink" width="120" height="98.99993896484375" viewBox="0 0 120 98.99993896484375" fill="none">
<path    stroke="rgba(216, 216, 216, 1)" stroke-width="4"    d="M23.3207 74.0878L49.3713 74.0878">
</path>
<path    stroke="rgba(216, 216, 216, 1)" stroke-width="4"    d="M23.3207 76.1088L48.8468 83.1373">
</path>
<rect  x="33.57958984375" y="43.451171875" width="12.892143249511719" height="3.3382568359375" rx="1.66912841796875"    fill="#D8D8D8" >
</rect>
<path    stroke="rgba(216, 216, 216, 1)" stroke-width="4"    d="M42.8621 55.2179L86.505 55.3463">
</path>
<path   fill="rgba(150, 150, 150, 1)"  d="M120 76.1089M120 76.1089Q120 80.7724 118.161 85.0333Q116.387 89.1432 113.155 92.3096Q109.928 95.4719 105.744 97.2058Q101.415 99 96.6794 99Q91.9437 99 87.6147 97.2058Q83.431 95.4719 80.2037 92.3096Q76.9721 89.1432 75.198 85.0333Q73.3588 80.7724 73.3588 76.1089Q73.3588 71.4454 75.198 67.1846Q76.9721 63.0747 80.2037 59.9082Q83.431 56.7459 87.6147 55.012Q91.9437 53.2179 96.6794 53.2179Q101.415 53.2179 105.744 55.012Q109.928 56.7459 113.155 59.9082Q116.387 63.0747 118.161 67.1846Q120 71.4454 120 76.1089ZM116 76.1089Q116 72.2719 114.488 68.7698Q113.026 65.3816 110.356 62.7653Q107.681 60.1448 104.213 58.7072Q100.619 57.2179 96.6794 57.2179Q92.7398 57.2179 89.1462 58.7072Q85.6776 60.1448 83.0032 62.7653Q80.333 65.3816 78.8705 68.7698Q77.3588 72.2719 77.3588 76.1089Q77.3588 79.946 78.8705 83.448Q80.333 86.8362 83.0032 89.4526Q85.6776 92.0731 89.1462 93.5106Q92.7398 95 96.6794 95Q100.619 95 104.213 93.5106Q107.681 92.0731 110.356 89.4526Q113.026 86.8362 114.488 83.448Q116 79.946 116 76.1089Z">
</path>
<path    stroke="rgba(216, 216, 216, 1)" stroke-width="4"    d="M82.0709 46.3007L96.6792 76.1088">
</path>
<ellipse  cx="49.60824203491211" cy="78.473876953125" rx="5.680995941162109" ry="5.5665283203125"    fill="#D8D8D8" >
</ellipse>
<path   fill="rgba(150, 150, 150, 1)"  d="M46.6413 76.1089M46.6413 76.1089Q46.6413 80.7724 44.802 85.0333Q43.028 89.1432 39.7964 92.3096Q36.569 95.4719 32.3853 97.2058Q28.0564 99 23.3206 99Q18.5849 99 14.256 97.2058Q10.0723 95.4719 6.84492 92.3096Q3.61334 89.1432 1.83925 85.0333Q-1.90735e-06 80.7724 -2.14577e-06 76.1089Q-2.38419e-07 71.4454 1.83925 67.1846Q3.61334 63.0747 6.84492 59.9082Q10.0722 56.7459 14.256 55.012Q18.5849 53.2179 23.3206 53.2179Q28.0563 53.2179 32.3853 55.012Q36.569 56.7459 39.7964 59.9082Q43.028 63.0747 44.802 67.1846Q46.6413 71.4454 46.6413 76.1089ZM42.6413 76.1089Q42.6413 72.2719 41.1296 68.7698Q39.667 65.3816 36.9969 62.7653Q34.3225 60.1448 30.8539 58.7072Q27.2603 57.2179 23.3206 57.2179Q19.381 57.2179 15.7874 58.7072Q12.3188 60.1448 9.64442 62.7653Q6.97428 65.3816 5.51171 68.7698Q4 72.2719 4 76.1089Q4 79.946 5.51171 83.448Q6.97428 86.8362 9.64442 89.4526Q12.3188 92.0731 15.7874 93.5106Q19.381 95 23.3206 95Q27.2603 95 30.8539 93.5106Q34.3225 92.0731 36.9969 89.4526Q39.667 86.8362 41.1296 83.448Q42.6413 79.946 42.6413 76.1089Z">
</path>
<path d="M42.0798 80.7559C41.9277 81.2695 40.6384 84.4173 41.1583 84.8977C41.6783 85.3781 48.3442 87.5153 48.7669 87.304C49.1895 87.0928 49.5361 86.5171 49.3163 86.2562C49.0966 85.9953 46.6533 84.732 46.3575 84.3883C46.0616 84.0445 45.9728 82.6363 46.3575 82.0026C47.4982 80.1234 42.702 78.6562 42.0798 80.7559Z"   fill="#1F161E" >
</path>
<path d="M49.0799 58.6265C48.746 59.0407 46.4084 61.5506 46.7213 62.1802C47.034 62.8097 52.5079 67.1255 52.956 67.0634C53.404 67.0012 53.962 66.5953 53.8478 66.2764C53.7337 65.9575 51.9077 63.9238 51.7682 63.5056C51.6287 63.0872 52.0429 61.7329 52.6347 61.2772C54.391 59.9252 50.4644 56.9093 49.0799 58.6265Z"   fill="#1F161E" >
</path>
<path d="M84.2137 2.69626C78.0256 2.69626 74.069 5.90191 67.3441 5.90191C61.6294 5.90191 54.9469 0 47.6552 0C38.2928 0 35.2703 8.96685 35.2703 12.4005C35.2703 21.0444 43.3904 22.6596 45.2922 22.6596C47.1946 22.6596 73.5495 20.5597 74.4583 20.5597C74.9527 14.7611 83.1022 15.4488 83.6009 13.6927C84.218 14.4051 88.513 17.7019 89.7129 17.7019C95.2673 17.7019 96.6791 13.9245 96.6791 12.1272C96.6791 7.15703 90.047 2.69626 84.2137 2.69626Z"   fill="#000000" >
</path>
<rect  transform="matrix(0.9207918047904968, -0.3900596797466278, 0.40366724133491516, 0.9149006009101868, 84.8519287109375, 44.17364501953125)" x="0" y="0" width="3.156004470692982" height="1.2299714166664772"    fill="#969696" >
</rect>
<path d="M78.5328 30.0982C78.4821 30.4088 78.1397 35.1139 78.275 35.7682L78.406 36.4226C78.406 36.4226 82.2103 42.8754 82.5104 43.3518C82.8105 43.8281 81.0605 44.5943 81.0605 44.5943C81.0605 44.5943 74.3905 37.7272 73.9213 37.1391C73.4521 36.551 71.4358 30.6034 71.4697 29.92C71.5035 29.2366 78.5328 30.0982 78.5328 30.0982Z"   fill="#F8CDBA" >
</path>
<path d="M58.1929 29.6384C58.6747 30.0527 71.9388 42.7844 71.8291 43.9111C71.7192 45.0375 53.6954 60.6228 51.616 61.0951C49.5363 61.5673 51.4299 54.8824 52.2077 54.3233C55.387 51.9034 58.4066 49.2889 61.2491 46.4953C59.9386 45.8412 46.1548 38.742 44.1088 37.9055C42.0629 37.0688 58.1929 29.6384 58.1929 29.6384Z"   fill="#1F161E" >
</path>
<path d="M54.3847 32.0528C49.9082 29.3279 46.8141 23.7945 46.0661 19.7726C42.2618 22.9367 39.7764 27.054 39.7764 32.049C39.7764 40.9617 43.6482 53.963 44.9754 57.5868C44.6458 59.3928 41.6193 80.9918 41.6193 80.9918L46.4887 82.1559C46.4887 82.1559 54.2537 56.2949 54.3847 54.9406C55.4414 49.3573 54.2916 32.7901 54.3847 32.0528Z"   fill="#AB8DE5" >
</path>
<path d="M79.8474 44.499C79.8474 44.499 79.9574 44.0393 79.3445 43.8821C78.7316 43.7247 70.544 38.4026 69.1997 35.5696C69.8633 34.244 72.6913 29.3155 74.2299 27.932C75.7685 26.5489 68.4474 19.0936 68.4474 19.0936C68.0711 19.8308 61.3419 33.2584 62.6016 37.9717C63.4469 40.8047 74.9527 45.9446 77.8777 47.332C80.8027 48.7194 79.8474 44.499 79.8474 44.499Z"   fill="#F8CDBA" >
</path>
<path d="M45.4449 20.3649C45.6605 20.1702 45.8676 19.9756 46.1128 19.785C45.8761 19.9797 45.6563 20.1702 45.4449 20.3649Z" fill-rule="evenodd"  fill="#FBDC8E" >
</path>
<path d="M79.9785 18.3229C79.9785 17.387 79.2514 12.127 69.0308 12.127C61.3167 12.127 52.0595 14.7652 46.0658 19.7726C46.8139 23.7942 49.8701 29.3319 54.3632 32.053C54.3632 32.053 60.1372 30.0731 64.2206 28.7189C64.3515 28.3503 64.4529 27.8904 64.5248 27.7041C66.3761 28.6898 71.402 31.4317 71.6641 31.5395C71.8374 31.2204 72.1206 30.7731 72.3783 30.3838L72.3783 30.4087C73.1352 30.5081 75.5993 31.0963 78.4188 30.7028C78.6216 29.717 79.9785 19.2591 79.9785 18.3229Z"   fill="#FBDC8E" >
</path>
<path d="M82.8781 14.2889L76.077 15.6143C75.1682 15.7841 76.077 20.5844 77.0449 20.398L83.8503 19.0727L82.8781 14.2889Z"   fill="#F8CDBA" >
</path>
<path    stroke="rgba(31, 22, 30, 1)" stroke-width="0.55"    d="M64.5254 27.7042C64.8932 26.8969 66.6389 23.0646 67.7083 20.7169">
</path>
<path    stroke="rgba(31, 22, 30, 1)" stroke-width="0.55"    d="M71.6643 31.5477C72.1292 30.7907 74.4625 26.9917 74.4625 26.9917">
</path>
<ellipse  transform="matrix(0.40981176495552063, -0.9121700525283813, 0.9182201027870178, 0.3960729241371155, 80.460205078125, 45.818115234375)" cx="1.94071566302625" cy="2.46894577690836" rx="1.94071566302625" ry="2.46894577690836"    fill="#F8CDBA" >
</ellipse>
<rect  transform="matrix(0.9340911507606506, -0.35703274607658386, 0.36986982822418213, 0.9290726184844971, 80.619140625, 45.725830078125)" x="0" y="0" width="3.1576237707791464" height="1.229332208356704" rx="0.614666104178352"    fill="#969696" >
</rect>
<ellipse  transform="matrix(0.15781237185001373, -0.987463116645813, 0.9884316921234131, 0.15166549384593964, 75.89892578125, 48.1180419921875)" cx="2.4655881904651347" cy="3.2024842704493954" rx="2.4655881904651347" ry="3.2024842704493954"    fill="#F8CDBA" >
</ellipse>
<path d="M74.1237 48.2116L78.8492 46.4054C79.1711 46.2824 79.5338 46.4383 79.6594 46.7537C79.7849 47.0691 79.6258 47.4245 79.3039 47.5475L74.5784 49.3537L74.1176 48.1962L74.1237 48.2116Z"   fill="#969696" >
</path>
<ellipse  cx="85.1358871459961" cy="13.924560546875" rx="1.3695297241210938" ry="1.3419189453125"    fill="#F8CDBA" >
</ellipse>
<path d="M86.323 13.2784C84.9661 13.5683 82.4723 13.9453 80.7139 13.6595C80.305 15.7926 81.1197 17.9739 82.837 19.3446C84.5544 20.7153 86.8993 21.0559 88.9486 20.2322C90.9978 19.4085 92.4232 17.5525 92.6634 15.3949C90.9769 15.0594 87.7728 14.1523 86.323 13.2784Z"   fill="#F8CDBA" >
</path>
<path    stroke="rgba(31, 22, 30, 1)" stroke-width="0.55"    d="M89.3117 18.4763C89.3708 18.42 89.5568 18.2429 90.9391 16.9272">
</path>
<path    stroke="rgba(31, 22, 30, 1)" stroke-width="0.55"    d="M86.9576 18.2906C86.8317 18.8006 86.9102 18.4827 87.1473 17.5219">
</path>
<ellipse  cx="23.321002960205078" cy="76.10891723632812" rx="2.950397491455078" ry="2.890960693359375"    fill="#D8D8D8" >
</ellipse>
<ellipse  cx="96.67915344238281" cy="76.10891723632812" rx="2.9503936767578125" ry="2.890960693359375"    fill="#D8D8D8" >
</ellipse>
<path    stroke="rgba(216, 216, 216, 1)" stroke-width="4"    d="M49.6083 78.474L86.5052 55.3463">
</path>
<path    stroke="rgba(216, 216, 216, 1)" stroke-width="4"    d="M23.3207 76.1088L42.8618 55.2178">
</path>
<path    stroke="rgba(216, 216, 216, 1)" stroke-width="4"    d="M40.7064 46.719L42.8621 55.2179">
</path>
</svg>
